<svg width="60" height="60" viewBox="0 0 60 60" fill="none" xmlns="http://www.w3.org/2000/svg">
<g clip-path="url(#clip0_39_318)">
<g filter="url(#filter0_d_39_318)">
<path d="M22.5 55V21.9375C18.7083 20.9375 15.6775 18.8442 13.4075 15.6575C11.1375 12.4708 10.0017 8.91833 10 5H15C15 8.45833 16.115 11.4067 18.345 13.845C20.575 16.2833 23.4183 17.5017 26.875 17.5H33.125C34.375 17.5 35.5417 17.7292 36.625 18.1875C37.7083 18.6458 38.6875 19.3125 39.5625 20.1875L50.875 31.5L47.375 35L37.5 25.125V55H32.5V40H27.5V55H22.5ZM30 15C28.625 15 27.4483 14.5108 26.47 13.5325C25.4917 12.5542 25.0017 11.3767 25 10C25 8.625 25.49 7.44833 26.47 6.47C27.45 5.49167 28.6267 5.00167 30 5C31.375 5 32.5525 5.49 33.5325 6.47C34.5125 7.45 35.0017 8.62667 35 10C35 11.375 34.5108 12.5525 33.5325 13.5325C32.5542 14.5125 31.3767 15.0017 30 15Z" fill="black"/>
<path d="M39.2089 20.5411L50.1679 31.5L47.375 34.2929L37.8536 24.7714L37 23.9179V25.125V54.5H33V40V39.5H32.5H27.5H27V40V54.5H23V21.9375V21.5523L22.6275 21.454C18.9485 20.4838 16.0168 18.4587 13.8147 15.3674C11.7021 12.4017 10.6006 9.11666 10.5066 5.5H14.5076C14.6111 8.86372 15.7663 11.7662 17.976 14.1824C20.3056 16.7296 23.2853 18.0017 26.875 18C26.8751 18 26.8752 18 26.8752 18H33.125C34.3123 18 35.4123 18.2173 36.4302 18.648C37.4512 19.0799 38.3771 19.7092 39.2089 20.5411ZM34.5 9.99939V10C34.5 11.2415 34.0641 12.2922 33.1786 13.1792C32.2936 14.0658 31.2434 14.5015 30.0006 14.5H30C28.7585 14.5 27.7088 14.0642 26.8236 13.1789C25.9383 12.2937 25.5015 11.2429 25.5 9.99939C25.5001 8.75847 25.9366 7.709 26.8233 6.82385C27.7105 5.93815 28.7606 5.50157 30.0003 5.5C31.2414 5.50007 32.2919 5.93656 33.1789 6.82355C34.066 7.71061 34.5015 8.76024 34.5 9.99939Z" stroke="white"/>
</g>
</g>
<defs>
<filter id="filter0_d_39_318" x="0" y="-5" width="60.875" height="70" filterUnits="userSpaceOnUse" color-interpolation-filters="sRGB">
<feFlood flood-opacity="0" result="BackgroundImageFix"/>
<feColorMatrix in="SourceAlpha" type="matrix" values="0 0 0 0 0 0 0 0 0 0 0 0 0 0 0 0 0 0 127 0" result="hardAlpha"/>
<feOffset/>
<feGaussianBlur stdDeviation="5"/>
<feComposite in2="hardAlpha" operator="out"/>
<feColorMatrix type="matrix" values="0 0 0 0 0 0 0 0 0 0.113325 0 0 0 0 0.708281 0 0 0 1 0"/>
<feBlend mode="normal" in2="BackgroundImageFix" result="effect1_dropShadow_39_318"/>
<feBlend mode="normal" in="SourceGraphic" in2="effect1_dropShadow_39_318" result="shape"/>
</filter>
<clipPath id="clip0_39_318">
<rect width="60" height="60" fill="white"/>
</clipPath>
</defs>
</svg>
