<svg width="60" height="60" viewBox="0 0 60 60" fill="none" xmlns="http://www.w3.org/2000/svg">
<g clip-path="url(#clip0_39_320)">
<g filter="url(#filter0_d_39_320)">
<path d="M35 17.5C38.4518 17.5 41.25 14.7018 41.25 11.25C41.25 7.79822 38.4518 5 35 5C31.5482 5 28.75 7.79822 28.75 11.25C28.75 14.7018 31.5482 17.5 35 17.5Z" fill="black"/>
<path d="M40.75 11.25C40.75 14.4256 38.1756 17 35 17C31.8244 17 29.25 14.4256 29.25 11.25C29.25 8.07436 31.8244 5.5 35 5.5C38.1756 5.5 40.75 8.07436 40.75 11.25Z" stroke="#F8F8F8"/>
</g>
<g filter="url(#filter1_d_39_320)">
<path d="M36.2499 34.125L24.7499 29C23.4999 28.375 22.8749 30.25 22.2499 31.5C21.6249 32.75 17.1249 40.5 17.4999 41.875C17.8749 43 18.8749 43.625 19.8749 43.625C20.1249 43.625 20.3749 43.625 20.6249 43.5L35.9999 38.75C36.9999 38.5 37.7499 37.5 37.7499 36.5C37.7499 35.5 37.1249 34.5 36.2499 34.125Z" fill="black"/>
<path d="M36.0464 34.5817L36.0464 34.5817L36.053 34.5846C36.729 34.8743 37.2499 35.683 37.2499 36.5C37.2499 37.2767 36.6502 38.072 35.8787 38.2649L35.8654 38.2682L35.8524 38.2723L20.4774 43.0223L20.4381 43.0344L20.4013 43.0528C20.2715 43.1177 20.1375 43.125 19.8749 43.125C19.0867 43.125 18.2903 42.6363 17.9812 41.7373C17.9803 41.7313 17.979 41.721 17.9783 41.7054C17.9771 41.6783 17.9778 41.6412 17.9824 41.5926C17.9917 41.4943 18.0149 41.367 18.0552 41.2094C18.1357 40.8942 18.2741 40.497 18.4597 40.0366C18.8303 39.1179 19.3692 37.9967 19.9453 36.8679C20.5202 35.7413 21.127 34.6172 21.6303 33.6945C21.7555 33.465 21.8749 33.2468 21.9861 33.0436C22.3177 32.4379 22.5762 31.9656 22.6972 31.7236C22.7842 31.5495 22.8798 31.3453 22.9738 31.1444C23.0442 30.9938 23.1138 30.8452 23.1782 30.7126C23.3414 30.3765 23.5024 30.0755 23.6724 29.8375C23.8462 29.5942 23.997 29.4635 24.1212 29.4088C24.2162 29.367 24.3337 29.3509 24.5263 29.4472L24.5363 29.4522L24.5464 29.4567L36.0464 34.5817Z" stroke="white"/>
</g>
<g filter="url(#filter2_d_39_320)">
<path d="M33.5001 19L30.7501 17.75C29.1251 17 27.1251 17.75 26.3751 19.375L11.5001 51.375C10.8751 52.625 11.5001 54.125 12.7501 54.75C13.1251 54.875 13.5001 55 13.8751 55C14.8751 55 15.7501 54.5 16.1251 53.625C16.1251 53.625 28.1251 37 29.1251 35C30.1251 33 35.2501 23.375 35.2501 23.375C35.8751 21.75 35.2501 19.75 33.5001 19Z" fill="black"/>
<path d="M33.2932 19.4552L33.2931 19.4553L33.3031 19.4596C34.761 20.0844 35.3192 21.7617 34.7938 23.168L34.7509 23.2487L34.5865 23.5576C34.4444 23.8248 34.2402 24.2087 33.9921 24.6755C33.496 25.6093 32.824 26.8751 32.1207 28.2036C30.716 30.8569 29.1812 33.7698 28.6779 34.7764C28.4476 35.237 27.5366 36.6147 26.26 38.4705C24.9964 40.3074 23.4043 42.5708 21.8422 44.7732C20.2804 46.9754 18.7497 49.1152 17.6094 50.7046C17.0393 51.4993 16.5668 52.1563 16.2369 52.6146L15.8545 53.1454L15.754 53.2847L15.7283 53.3204L15.7218 53.3294L15.7202 53.3316L15.7198 53.3322C15.7197 53.3323 15.7197 53.3324 16.1251 53.625L15.7197 53.3324L15.6873 53.3772L15.6655 53.428C15.3822 54.089 14.7101 54.5 13.8751 54.5C13.6043 54.5 13.3179 54.4118 12.9435 54.2874C11.9225 53.7581 11.4692 52.5548 11.9473 51.5986L11.9505 51.5922L11.9535 51.5858L26.8285 19.5858L26.8291 19.5845C27.4648 18.2071 29.1694 17.5711 30.5405 18.204L30.5432 18.2052L33.2932 19.4552Z" stroke="white"/>
</g>
<g filter="url(#filter3_d_39_320)">
<path d="M50.625 19.625C49.75 18.625 48.125 18.375 47.125 19.25L40.875 24.5L32.875 20.125C31.5 19.375 29.625 19.625 28.75 21.25C27.75 22.875 28.25 24.875 29.75 25.5L40.125 29.75C40.5 29.875 40.875 30 41.25 30C41.875 30 42.375 29.75 42.875 29.375L50.375 23.125C51.375 22.25 51.5 20.75 50.625 19.625ZM14.625 28.875L18.875 22.5L24.625 23.25L26.5 19.375C27 18.25 28 17.625 29.125 17.5H17.625C16.75 17.5 16 17.875 15.5 18.625L10.5 26.125C9.75 27.25 10 28.875 11.25 29.625C11.5 29.875 12 30 12.5 30C13.25 30 14.125 29.625 14.625 28.875Z" fill="black"/>
<path d="M47.4466 19.6329L47.4467 19.6329L47.4543 19.6263C48.2054 18.969 49.5093 19.1208 50.2392 19.9435C50.9521 20.8711 50.8295 22.059 50.05 22.745L42.565 28.9825C42.1131 29.3198 41.72 29.5 41.25 29.5C40.9745 29.5 40.6829 29.4088 40.299 29.2809L29.9423 25.0385C29.9419 25.0383 29.9414 25.0381 29.941 25.0379C28.7957 24.5597 28.2947 22.9439 29.1758 21.512L29.1834 21.4998L29.1902 21.487C29.9062 20.1574 31.4493 19.9171 32.6352 20.5637C32.6353 20.5638 32.6354 20.5639 32.6356 20.5639L40.6351 24.9387L40.9349 25.1027L41.1966 24.8829L47.4466 19.6329ZM18.9397 22.0042L18.6314 21.964L18.459 22.2226L14.209 28.5976C13.813 29.1915 13.1043 29.5 12.5 29.5C12.2889 29.5 12.086 29.4733 11.9186 29.4255C11.7445 29.3757 11.6461 29.314 11.6036 29.2714L11.56 29.2279L11.5072 29.1963C10.5253 28.6071 10.3089 27.313 10.916 26.4023L15.916 18.9023C16.3189 18.298 16.9092 18 17.625 18H26.8637C26.5321 18.315 26.2527 18.7029 26.0465 19.1643L24.332 22.7075L18.9397 22.0042Z" stroke="white"/>
</g>
</g>
<defs>
<filter id="filter0_d_39_320" x="18.75" y="-5" width="32.5" height="32.5" filterUnits="userSpaceOnUse" color-interpolation-filters="sRGB">
<feFlood flood-opacity="0" result="BackgroundImageFix"/>
<feColorMatrix in="SourceAlpha" type="matrix" values="0 0 0 0 0 0 0 0 0 0 0 0 0 0 0 0 0 0 127 0" result="hardAlpha"/>
<feOffset/>
<feGaussianBlur stdDeviation="5"/>
<feComposite in2="hardAlpha" operator="out"/>
<feColorMatrix type="matrix" values="0 0 0 0 0 0 0 0 0 0.113325 0 0 0 0 0.708281 0 0 0 1 0"/>
<feBlend mode="normal" in2="BackgroundImageFix" result="effect1_dropShadow_39_320"/>
<feBlend mode="normal" in="SourceGraphic" in2="effect1_dropShadow_39_320" result="shape"/>
</filter>
<filter id="filter1_d_39_320" x="7.47778" y="18.8759" width="40.2722" height="34.7491" filterUnits="userSpaceOnUse" color-interpolation-filters="sRGB">
<feFlood flood-opacity="0" result="BackgroundImageFix"/>
<feColorMatrix in="SourceAlpha" type="matrix" values="0 0 0 0 0 0 0 0 0 0 0 0 0 0 0 0 0 0 127 0" result="hardAlpha"/>
<feOffset/>
<feGaussianBlur stdDeviation="5"/>
<feComposite in2="hardAlpha" operator="out"/>
<feColorMatrix type="matrix" values="0 0 0 0 0 0 0 0 0 0.113325 0 0 0 0 0.708281 0 0 0 1 0"/>
<feBlend mode="normal" in2="BackgroundImageFix" result="effect1_dropShadow_39_320"/>
<feBlend mode="normal" in="SourceGraphic" in2="effect1_dropShadow_39_320" result="shape"/>
</filter>
<filter id="filter2_d_39_320" x="1.25488" y="7.45813" width="44.2314" height="57.5419" filterUnits="userSpaceOnUse" color-interpolation-filters="sRGB">
<feFlood flood-opacity="0" result="BackgroundImageFix"/>
<feColorMatrix in="SourceAlpha" type="matrix" values="0 0 0 0 0 0 0 0 0 0 0 0 0 0 0 0 0 0 127 0" result="hardAlpha"/>
<feOffset/>
<feGaussianBlur stdDeviation="5"/>
<feComposite in2="hardAlpha" operator="out"/>
<feColorMatrix type="matrix" values="0 0 0 0 0 0 0 0 0 0.113325 0 0 0 0 0.708281 0 0 0 1 0"/>
<feBlend mode="normal" in2="BackgroundImageFix" result="effect1_dropShadow_39_320"/>
<feBlend mode="normal" in="SourceGraphic" in2="effect1_dropShadow_39_320" result="shape"/>
</filter>
<filter id="filter3_d_39_320" x="0.078125" y="7.5" width="61.1321" height="32.5" filterUnits="userSpaceOnUse" color-interpolation-filters="sRGB">
<feFlood flood-opacity="0" result="BackgroundImageFix"/>
<feColorMatrix in="SourceAlpha" type="matrix" values="0 0 0 0 0 0 0 0 0 0 0 0 0 0 0 0 0 0 127 0" result="hardAlpha"/>
<feOffset/>
<feGaussianBlur stdDeviation="5"/>
<feComposite in2="hardAlpha" operator="out"/>
<feColorMatrix type="matrix" values="0 0 0 0 0 0 0 0 0 0.113325 0 0 0 0 0.708281 0 0 0 1 0"/>
<feBlend mode="normal" in2="BackgroundImageFix" result="effect1_dropShadow_39_320"/>
<feBlend mode="normal" in="SourceGraphic" in2="effect1_dropShadow_39_320" result="shape"/>
</filter>
<clipPath id="clip0_39_320">
<rect width="60" height="60" fill="white"/>
</clipPath>
</defs>
</svg>
