<svg width="60" height="60" viewBox="0 0 60 60" fill="none" xmlns="http://www.w3.org/2000/svg">
<g clip-path="url(#clip0_39_326)">
<g filter="url(#filter0_d_39_326)">
<path d="M31.65 6.45005C30.7 5.62505 29.275 5.62505 28.325 6.45005C16.125 17.2 10 26.5501 10 34.5C10 46.9501 19.5 55 30 55C40.5 55 50 46.9501 50 34.5C50 26.5501 43.875 17.2 31.65 6.45005ZM19.575 35C20.5 35 21.25 35.65 21.425 36.55C22.45 42.1 27.125 44 30.525 43.725C31.6 43.675 32.5 44.5251 32.5 45.6C32.5 46.6 31.7 47.425 30.7 47.475C25.375 47.8 19.15 44.75 17.725 37.175C17.6816 36.907 17.6968 36.6327 17.7698 36.3712C17.8428 36.1096 17.9717 35.8671 18.1476 35.6602C18.3235 35.4534 18.5423 35.2872 18.7887 35.1733C19.0352 35.0593 19.3035 35.0002 19.575 35Z" fill="black"/>
<path d="M19.575 34.5H19.5748C19.2308 34.5002 18.891 34.5751 18.5789 34.7194C18.2667 34.8638 17.9896 35.0743 17.7668 35.3363C17.5439 35.5983 17.3806 35.9055 17.2882 36.2368C17.1958 36.5681 17.1764 36.9155 17.2314 37.255L17.2313 37.2551L17.2336 37.2675C18.7137 45.1351 25.2018 48.3106 30.7282 47.9743C31.9872 47.9096 33 46.871 33 45.6C33 44.2364 31.8583 43.1625 30.5018 43.2256L30.4932 43.226L30.4847 43.2267C27.2741 43.4864 22.884 41.6967 21.9167 36.4592L21.9167 36.4592L21.9158 36.4546C21.6973 35.3307 20.7504 34.5 19.575 34.5ZM28.6542 6.82638C29.4158 6.16621 30.5595 6.16627 31.321 6.82658C37.4131 12.1837 41.965 17.1748 44.991 21.7988C48.0179 26.4242 49.5 30.6544 49.5 34.5C49.5 46.6586 40.2394 54.5 30 54.5C19.7606 54.5 10.5 46.6586 10.5 34.5C10.5 30.6543 11.9821 26.4242 15.006 21.7986C18.029 17.1746 22.5747 12.1835 28.6542 6.82638Z" stroke="white"/>
</g>
</g>
<defs>
<filter id="filter0_d_39_326" x="0" y="-4.1687" width="60" height="69.1687" filterUnits="userSpaceOnUse" color-interpolation-filters="sRGB">
<feFlood flood-opacity="0" result="BackgroundImageFix"/>
<feColorMatrix in="SourceAlpha" type="matrix" values="0 0 0 0 0 0 0 0 0 0 0 0 0 0 0 0 0 0 127 0" result="hardAlpha"/>
<feOffset/>
<feGaussianBlur stdDeviation="5"/>
<feComposite in2="hardAlpha" operator="out"/>
<feColorMatrix type="matrix" values="0 0 0 0 0 0 0 0 0 0.113325 0 0 0 0 0.708281 0 0 0 1 0"/>
<feBlend mode="normal" in2="BackgroundImageFix" result="effect1_dropShadow_39_326"/>
<feBlend mode="normal" in="SourceGraphic" in2="effect1_dropShadow_39_326" result="shape"/>
</filter>
<clipPath id="clip0_39_326">
<rect width="60" height="60" fill="white"/>
</clipPath>
</defs>
</svg>
