<svg width="75" height="80" viewBox="0 0 75 80" fill="none" xmlns="http://www.w3.org/2000/svg">
<path d="M37.5 49.9031C47.1513 49.9031 55 42.7601 55 33.9767C55 25.1933 47.1513 18.0503 37.5 18.0503C27.8487 18.0503 20 25.1933 20 33.9767C20 42.7601 27.8487 49.9031 37.5 49.9031ZM37.5 26.0135C42.3256 26.0135 46.25 29.585 46.25 33.9767C46.25 38.3684 42.3256 41.9399 37.5 41.9399C32.6744 41.9399 28.75 38.3684 28.75 33.9767C28.75 29.585 32.6744 26.0135 37.5 26.0135Z" fill="#F8F8F8"/>
<path d="M34.7813 78.892C35.5746 79.3732 36.5251 79.6319 37.5 79.6319C38.4749 79.6319 39.4254 79.3732 40.2187 78.892C41.6437 78.0359 75.1355 57.4947 74.9996 31.853C74.9996 14.2901 58.1763 0 37.5 0C16.8237 0 0.000412672 14.2901 0.000412672 31.8331C-0.135523 57.4947 33.3563 78.0359 34.7813 78.892ZM37.5 7.96326C53.0108 7.96326 65.6247 18.6778 65.6247 31.8729C65.7231 49.5434 45.0562 65.4102 37.5 70.6142C29.9485 65.4062 9.27687 49.5354 9.37531 31.853C9.37531 18.6778 21.9892 7.96326 37.5 7.96326Z" fill="#F8F8F8"/>
</svg>
