<svg width="28" height="30" viewBox="0 0 28 30" fill="none" xmlns="http://www.w3.org/2000/svg">
<path d="M6.10822 12.8871C8.26822 17.3943 11.7482 21.0733 15.9932 23.3826L19.2932 19.8788C19.6982 19.4488 20.2982 19.3055 20.8232 19.4966C22.5032 20.0858 24.3182 20.4044 26.1782 20.4044C27.0032 20.4044 27.6782 21.1211 27.6782 21.997V27.5553C27.6782 28.4313 27.0032 29.148 26.1782 29.148C12.0932 29.148 0.678223 17.028 0.678223 2.07311C0.678223 1.19716 1.35322 0.480469 2.17822 0.480469H7.42822C8.25322 0.480469 8.92822 1.19716 8.92822 2.07311C8.92822 4.06391 9.22822 5.97507 9.78322 7.75883C9.94822 8.31625 9.82822 8.93738 9.40822 9.38332L6.10822 12.8871Z" fill="#F8F8F8"/>
</svg>
