<svg width="37" height="39" viewBox="0 0 37 39" fill="none" xmlns="http://www.w3.org/2000/svg">
<path fill-rule="evenodd" clip-rule="evenodd" d="M27.8266 1.68744C21.8014 0.37437 15.5532 0.37437 9.52804 1.68744L8.87883 1.82747C7.18402 2.19689 5.62743 3.01713 4.38198 4.19708C3.13652 5.37703 2.25097 6.87049 1.82368 8.51155C0.296403 14.3788 0.296403 20.5251 1.82368 26.3924C2.23117 27.9575 3.05585 29.3897 4.21415 30.5439C5.37244 31.6981 6.82315 32.5332 8.41921 32.9645L9.30972 38.1474C9.33815 38.312 9.41131 38.4662 9.5216 38.5938C9.63188 38.7215 9.77524 38.818 9.93677 38.8733C10.0983 38.9285 10.2721 38.9406 10.44 38.9082C10.6079 38.8758 10.7639 38.8 10.8916 38.6889L16.1217 34.1277C20.0477 34.3612 23.988 34.0552 27.8266 33.2184L28.4777 33.0784C30.1725 32.709 31.7291 31.8887 32.9746 30.7088C34.22 29.5288 35.1056 28.0354 35.5329 26.3943C37.06 20.527 37.06 14.3807 35.5329 8.51342C35.1054 6.87212 34.2196 5.37849 32.9738 4.19852C31.728 3.01855 30.171 2.19845 28.4758 1.82933L27.8266 1.68744ZM11.1444 8.36032C10.7884 8.30981 10.4255 8.37966 10.116 8.55823H10.0892C9.37101 8.96898 8.72371 9.48616 8.17217 10.0948C7.71255 10.612 7.46359 11.1348 7.39847 11.6389C7.36017 11.9376 7.38698 12.2401 7.47699 12.5257L7.51146 12.5444C8.02854 14.025 8.70264 15.4496 9.52613 16.7901C10.5879 18.673 11.8946 20.4144 13.4137 21.9712L13.4597 22.0347L13.5325 22.087L13.5765 22.1374L13.6301 22.1822C15.2325 23.6677 17.0229 24.9476 18.9579 25.991C21.1698 27.1654 22.5123 27.7199 23.3185 27.9514V27.9626C23.5541 28.0336 23.7686 28.0653 23.985 28.0653C24.6716 28.0158 25.3215 27.7437 25.8311 27.2923C26.4535 26.7546 26.9801 26.1217 27.39 25.4178V25.4047C27.7749 24.6953 27.6447 24.0268 27.0893 23.5732C25.9738 22.6229 24.7675 21.7789 23.487 21.0526C22.6291 20.5989 21.7577 20.8734 21.4054 21.3327L20.6527 22.2587C20.2659 22.718 19.565 22.6546 19.565 22.6546L19.5458 22.6658C14.3157 21.3644 12.9196 16.202 12.9196 16.202C12.9196 16.202 12.8545 15.5 13.339 15.1415L14.2813 14.4021C14.7332 14.0437 15.0473 13.196 14.5628 12.3596C13.8228 11.1101 12.9588 9.9344 11.9832 8.84949C11.7704 8.59416 11.472 8.42026 11.1405 8.35845L11.1444 8.36032ZM19.9805 6.11611C19.7266 6.11611 19.483 6.21447 19.3035 6.38954C19.1239 6.56461 19.023 6.80205 19.023 7.04964C19.023 7.29723 19.1239 7.53468 19.3035 7.70975C19.483 7.88482 19.7266 7.98317 19.9805 7.98317C22.4031 7.98317 24.4139 8.75427 26.0054 10.233C26.8231 11.0414 27.4608 11.9992 27.8783 13.0485C28.2977 14.0997 28.4892 15.2218 28.4394 16.3457C28.4342 16.4683 28.4537 16.5907 28.4969 16.706C28.5402 16.8212 28.6063 16.927 28.6915 17.0173C28.8635 17.1998 29.1028 17.3081 29.3568 17.3185C29.6107 17.3289 29.8585 17.2405 30.0456 17.0728C30.2327 16.9051 30.3438 16.6718 30.3545 16.4242C30.4139 15.0416 30.1785 13.662 29.6632 12.3726C29.1456 11.0772 28.3608 9.899 27.3574 8.91111L27.3383 8.89243C25.3638 7.05338 22.8646 6.11611 19.9805 6.11611ZM19.9154 9.18556C19.6615 9.18556 19.4179 9.28392 19.2383 9.45899C19.0588 9.63406 18.9579 9.87151 18.9579 10.1191C18.9579 10.3667 19.0588 10.6041 19.2383 10.7792C19.4179 10.9543 19.6615 11.0526 19.9154 11.0526H19.948C21.6945 11.174 22.9661 11.7416 23.8567 12.6732C24.7701 13.6329 25.2432 14.826 25.2068 16.3009C25.2009 16.5485 25.2962 16.7882 25.4717 16.9673C25.6471 17.1464 25.8883 17.2502 26.1423 17.2559C26.3963 17.2616 26.6421 17.1687 26.8258 16.9977C27.0095 16.8267 27.116 16.5915 27.1219 16.3439C27.1678 14.4077 26.5282 12.7367 25.2604 11.4036V11.3999C23.9639 10.0444 22.1848 9.32746 20.0437 9.18743L20.0112 9.1837L19.9154 9.18556ZM19.879 12.3129C19.7509 12.3019 19.6218 12.3161 19.4994 12.3548C19.377 12.3935 19.2639 12.4559 19.1668 12.5381C19.0697 12.6204 18.9906 12.7209 18.9342 12.8336C18.8778 12.9463 18.8453 13.069 18.8386 13.1942C18.8319 13.3195 18.8512 13.4448 18.8953 13.5626C18.9393 13.6804 19.0073 13.7884 19.0951 13.88C19.1829 13.9717 19.2888 14.0452 19.4064 14.096C19.5239 14.1469 19.6508 14.1742 19.7795 14.1762C20.58 14.2173 21.0913 14.4525 21.413 14.7681C21.7367 15.0855 21.978 15.5952 22.022 16.3924C22.0244 16.5177 22.0526 16.6412 22.105 16.7556C22.1574 16.8701 22.2329 16.973 22.327 17.0584C22.4211 17.1438 22.5318 17.2098 22.6526 17.2526C22.7734 17.2953 22.9018 17.3139 23.0302 17.3073C23.1585 17.3006 23.2842 17.2689 23.3996 17.2139C23.5151 17.1589 23.6181 17.0818 23.7023 16.9872C23.7866 16.8926 23.8505 16.7824 23.8902 16.6632C23.9298 16.544 23.9445 16.4183 23.9333 16.2935C23.872 15.1732 23.5119 14.1837 22.7746 13.4555C22.0335 12.7274 21.0243 12.3726 19.879 12.3129Z" fill="#F8F8F8"/>
</svg>
